<svg xmlns="http://www.w3.org/2000/svg" xmlns:xlink="http://www.w3.org/1999/xlink" version="1.1" x="0px" y="0px" viewBox="0 0 64 80" enable-background="new 0 0 64 64" xml:space="preserve" height="51px">
<g>
<g>
<path d="M56,21H23.3c-0.7,0-1.3-0.6-1.3-1.3S22.6,18.3,23.3,18.3H56c0.7,0,1.3,0.6,1.3,1.3S56.7,21,56,21z"/>
</g>
<g>
<path d="M13.1,21H8c-0.7,0-1.3-0.6-1.3-1.3S7.3,18.3,8,18.3h5.1c0.7,0,1.3,0.6,1.3,1.3S13.9,21,13.1,21z"/>
</g>
<g>
<path d="M56,33.3h-8.6c-0.7,0-1.3-0.6-1.3-1.3c0-0.7,0.6-1.3,1.3-1.3H56c0.7,0,1.3,0.6,1.3,1.3S56.7,33.3,56,33.3z"/>
</g>
<g>
<path d="M37.2,33.3H8c-0.7,0-1.3-0.6-1.3-1.3c0-0.7,0.6-1.3,1.3-1.3h29.2c0.7,0,1.3,0.6,1.3,1.3S37.9,33.3,37.2,33.3z"/>
</g>
<g>
<path d="M56,45.7H23.3c-0.7,0-1.3-0.6-1.3-1.3c0-0.7,0.6-1.3,1.3-1.3H56c0.7,0,1.3,0.6,1.3,1.3S56.7,45.7,56,45.7z"/>
</g>
<g>
<path d="M13.1,45.7H8c-0.7,0-1.3-0.6-1.3-1.3c0-0.7,0.6-1.3,1.3-1.3h5.1c0.7,0,1.3,0.6,1.3,1.3S13.9,45.7,13.1,45.7z"/>
</g>
<g>
<path d="M18.2,26.1c-3.5,0-6.4-2.9-6.4-6.4c0-3.6,2.9-6.4,6.4-6.4c3.5,0,6.4,2.9,6.4,6.4C24.7,23.2,21.8,26.1,18.2,26.1z M18.2,15.9c-2.1,0-3.8,1.7-3.8,3.8c0,2.1,1.7,3.8,3.8,3.8c2.1,0,3.8-1.7,3.8-3.8C22,17.6,20.3,15.9,18.2,15.9z"/>
</g>
<g>
<path d="M42.3,38.4c-3.5,0-6.4-2.9-6.4-6.4c0-3.6,2.9-6.4,6.4-6.4c3.5,0,6.4,2.9,6.4,6.4C48.8,35.5,45.9,38.4,42.3,38.4z M42.3,28.2c-2.1,0-3.8,1.7-3.8,3.8c0,2.1,1.7,3.8,3.8,3.8c2.1,0,3.8-1.7,3.8-3.8C46.1,29.9,44.4,28.2,42.3,28.2z"/>
</g>
<g>
<path d="M18.2,50.8c-3.5,0-6.4-2.9-6.4-6.4c0-3.6,2.9-6.4,6.4-6.4c3.5,0,6.4,2.9,6.4,6.4C24.7,47.9,21.8,50.8,18.2,50.8z M18.2,40.6c-2.1,0-3.8,1.7-3.8,3.8c0,2.1,1.7,3.8,3.8,3.8c2.1,0,3.8-1.7,3.8-3.8C22,42.3,20.3,40.6,18.2,40.6z"/>
</g>
</g>
</svg>